<svg width="466" height="468" viewBox="0 0 466 468" fill="none" xmlns="http://www.w3.org/2000/svg">
<path d="M0 233.999C0.000637672 360.925 12.6815 410.751 20.159 429.098C22.9908 436.046 27.9689 441.97 34.6565 445.372C51.3034 453.84 96.423 467.697 213.651 467.997L252.349 468C369.583 467.699 414.701 453.841 431.346 445.373C438.032 441.972 443.008 436.05 445.84 429.103C453.317 410.758 465.999 360.932 466 233.999C465.999 107.072 453.318 57.2462 445.84 38.899C443.009 31.951 438.031 26.0276 431.343 22.6258C414.697 14.1579 369.577 0.300762 252.349 0L213.651 0.0025968C96.429 0.303342 51.308 14.1589 34.659 22.627C27.9696 26.0294 22.9899 31.9545 20.1576 38.9045C12.68 57.2535 0.000637636 107.079 0 233.999Z" fill="#10101E"/>
<path d="M96.75 196.5L142.745 242.752C162.082 262.197 171.75 271.92 171.75 284C171.75 296.08 162.082 305.803 142.745 325.248L96.75 371.5" stroke="#9956F6" stroke-width="37.5" stroke-linecap="round" stroke-linejoin="round"/>
<circle cx="270.5" cy="352.75" r="18.75" fill="#02C59B"/>
</svg>
